<mxfile host="65bd71144e">
    <diagram id="37v83Nntvbdrm7so_rxu" name="Page-1">
        <mxGraphModel dx="696" dy="369" grid="1" gridSize="10" guides="1" tooltips="1" connect="1" arrows="1" fold="1" page="1" pageScale="1" pageWidth="850" pageHeight="1100" math="1" shadow="0">
            <root>
                <mxCell id="0"/>
                <mxCell id="1" parent="0"/>
                <mxCell id="33" style="edgeStyle=orthogonalEdgeStyle;html=1;entryX=0;entryY=0.25;entryDx=0;entryDy=0;strokeWidth=2;" parent="1" source="16" target="30" edge="1">
                    <mxGeometry relative="1" as="geometry"/>
                </mxCell>
                <mxCell id="16" value="&amp;nbsp; &amp;nbsp;[7:0]&amp;nbsp;A [k]" style="shape=offPageConnector;whiteSpace=wrap;html=1;rotation=0;direction=north;labelPosition=center;verticalLabelPosition=middle;align=left;verticalAlign=middle;size=0.16666666666666666;" parent="1" vertex="1">
                    <mxGeometry x="40" y="80" width="100" height="40" as="geometry"/>
                </mxCell>
                <mxCell id="34" style="edgeStyle=orthogonalEdgeStyle;html=1;entryX=0;entryY=0.75;entryDx=0;entryDy=0;strokeWidth=2;" parent="1" source="18" target="30" edge="1">
                    <mxGeometry relative="1" as="geometry"/>
                </mxCell>
                <mxCell id="18" value="&amp;nbsp; &amp;nbsp;[7:0] B [k]" style="shape=offPageConnector;whiteSpace=wrap;html=1;rotation=0;direction=north;labelPosition=center;verticalLabelPosition=middle;align=left;verticalAlign=middle;size=0.16666666666666666;" parent="1" vertex="1">
                    <mxGeometry x="40" y="160" width="100" height="40" as="geometry"/>
                </mxCell>
                <mxCell id="24" value="MXINT8" style="text;html=1;align=center;verticalAlign=middle;resizable=0;points=[];autosize=1;strokeColor=none;fillColor=none;" parent="1" vertex="1">
                    <mxGeometry x="40" y="50" width="70" height="30" as="geometry"/>
                </mxCell>
                <mxCell id="25" value="MXINT8" style="text;html=1;align=center;verticalAlign=middle;resizable=0;points=[];autosize=1;strokeColor=none;fillColor=none;" parent="1" vertex="1">
                    <mxGeometry x="40" y="130" width="70" height="30" as="geometry"/>
                </mxCell>
                <mxCell id="26" value="BF16" style="text;html=1;align=center;verticalAlign=middle;resizable=0;points=[];autosize=1;strokeColor=none;fillColor=none;" parent="1" vertex="1">
                    <mxGeometry x="565" y="90" width="50" height="30" as="geometry"/>
                </mxCell>
                <mxCell id="37" style="edgeStyle=orthogonalEdgeStyle;html=1;entryX=0;entryY=0.5;entryDx=0;entryDy=0;strokeWidth=2;" parent="1" source="30" target="35" edge="1">
                    <mxGeometry relative="1" as="geometry"/>
                </mxCell>
                <mxCell id="30" value="*" style="rounded=0;whiteSpace=wrap;html=1;" parent="1" vertex="1">
                    <mxGeometry x="180" y="60" width="40" height="160" as="geometry"/>
                </mxCell>
                <mxCell id="45" style="edgeStyle=orthogonalEdgeStyle;html=1;entryX=0;entryY=0.5;entryDx=0;entryDy=0;" parent="1" source="35" target="44" edge="1">
                    <mxGeometry relative="1" as="geometry"/>
                </mxCell>
                <mxCell id="35" value="$$\Sigma$$" style="triangle;whiteSpace=wrap;html=1;" parent="1" vertex="1">
                    <mxGeometry x="280" y="60" width="80" height="160" as="geometry"/>
                </mxCell>
                <mxCell id="40" value="$$2W$$" style="text;html=1;align=center;verticalAlign=middle;resizable=0;points=[];autosize=1;strokeColor=none;fillColor=none;rotation=45;" parent="1" vertex="1">
                    <mxGeometry x="220" y="150" width="70" height="30" as="geometry"/>
                </mxCell>
                <mxCell id="42" value="$$2W+log_2(k)$$" style="text;html=1;align=center;verticalAlign=middle;resizable=0;points=[];autosize=1;strokeColor=none;fillColor=none;rotation=45;" parent="1" vertex="1">
                    <mxGeometry x="335" y="170" width="120" height="30" as="geometry"/>
                </mxCell>
                <mxCell id="43" value="[15:0] C [1]&amp;nbsp; &amp;nbsp;" style="shape=offPageConnector;whiteSpace=wrap;html=1;rotation=0;direction=south;labelPosition=center;verticalLabelPosition=middle;align=right;verticalAlign=middle;size=0.2;" parent="1" vertex="1">
                    <mxGeometry x="515" y="120" width="100" height="40" as="geometry"/>
                </mxCell>
                <mxCell id="46" style="edgeStyle=orthogonalEdgeStyle;html=1;entryX=0.5;entryY=1;entryDx=0;entryDy=0;" parent="1" source="44" target="43" edge="1">
                    <mxGeometry relative="1" as="geometry"/>
                </mxCell>
                <mxCell id="44" value="rnd_bf16_rne" style="rounded=0;whiteSpace=wrap;html=1;" parent="1" vertex="1">
                    <mxGeometry x="400" y="125" width="90" height="30" as="geometry"/>
                </mxCell>
                <mxCell id="71" value="$$W$$" style="text;html=1;align=center;verticalAlign=middle;resizable=0;points=[];autosize=1;strokeColor=none;fillColor=none;rotation=45;" parent="1" vertex="1">
                    <mxGeometry x="125" y="180" width="60" height="30" as="geometry"/>
                </mxCell>
            </root>
        </mxGraphModel>
    </diagram>
</mxfile>